HIERARCHY
ROOT Hips
{
	OFFSET 47.747299 1.723456 84.157898
	CHANNELS 6 Xposition Yposition Zposition Xrotation Yrotation Zrotation
	JOINT spine
	{
		OFFSET 0.000000 -0.342408 5.954376
		CHANNELS 3 Xrotation Yrotation Zrotation
		JOINT spine1
		{
			OFFSET 0.000000 -0.000001 8.856018
			CHANNELS 3 Xrotation Yrotation Zrotation
			JOINT spine2
			{
				OFFSET 0.000000 -0.000001 8.485672
				CHANNELS 3 Xrotation Yrotation Zrotation
				JOINT Neck
				{
					OFFSET 0.000000 -1.038704 21.786301
					CHANNELS 3 Xrotation Yrotation Zrotation
					JOINT Head
					{
						OFFSET 0.000000 -0.000001 6.582199
						CHANNELS 3 Xrotation Yrotation Zrotation
						End Site
						{
							OFFSET 0.000000 5.254357 15.932602
						}
					}
				}
				JOINT RightShoulder
				{
					OFFSET -3.573071 0.497524 9.163864
					CHANNELS 3 Xrotation Yrotation Zrotation
					JOINT RightArm
					{
						OFFSET 0.000000 -0.000002 12.019196
						CHANNELS 3 Xrotation Yrotation Zrotation
						JOINT RightArmRoll
						{
							OFFSET 0.000000 -0.000001 6.067551
							CHANNELS 3 Xrotation Yrotation Zrotation
							JOINT RightForeArm
							{
								OFFSET 0.000000 -0.000003 17.672592
								CHANNELS 3 Xrotation Yrotation Zrotation
								JOINT RightForeArmRoll
								{
									OFFSET 0.000000 -0.000001 6.808716
									CHANNELS 3 Xrotation Yrotation Zrotation
									JOINT RightHand
									{
										OFFSET 0.000000 -0.000002 13.663605
										CHANNELS 3 Xrotation Yrotation Zrotation
										End Site
										{
											OFFSET 0.000000 0.000000 0.100006
										}
									}
								}
							}
						}
					}
				}
				JOINT LeftShoulder
				{
					OFFSET 3.573071 0.497524 9.163864
					CHANNELS 3 Xrotation Yrotation Zrotation
					JOINT LeftArm
					{
						OFFSET 0.000000 -0.000002 12.019196
						CHANNELS 3 Xrotation Yrotation Zrotation
						JOINT LeftArmRoll
						{
							OFFSET 0.000000 -0.000001 6.067551
							CHANNELS 3 Xrotation Yrotation Zrotation
							JOINT LeftForeArm
							{
								OFFSET 0.000000 -0.000003 17.672592
								CHANNELS 3 Xrotation Yrotation Zrotation
								JOINT LeftForeArmRoll
								{
									OFFSET 0.000000 -0.000001 6.808716
									CHANNELS 3 Xrotation Yrotation Zrotation
									JOINT LeftHand
									{
										OFFSET 0.000000 -0.000002 13.663605
										CHANNELS 3 Xrotation Yrotation Zrotation
										End Site
										{
											OFFSET 0.000000 0.000000 0.100006
										}
									}
								}
							}
						}
					}
				}
			}
		}
	}
	JOINT RightUpLeg
	{
		OFFSET -5.277740 0.811858 -0.967796
		CHANNELS 3 Xrotation Yrotation Zrotation
		JOINT RightUpLegRoll
		{
			OFFSET 0.000000 -0.000003 16.021400
			CHANNELS 3 Xrotation Yrotation Zrotation
			JOINT RightLeg
			{
				OFFSET 0.000000 0.000003 -19.840103
				CHANNELS 3 Xrotation Yrotation Zrotation
				JOINT RightLegRoll
				{
					OFFSET 0.000000 -0.000003 19.904999
					CHANNELS 3 Xrotation Yrotation Zrotation
					JOINT RightFoot
					{
						OFFSET 0.000000 -0.000003 16.567497
						CHANNELS 3 Xrotation Yrotation Zrotation
						JOINT RightToeBase
						{
							OFFSET 0.000000 -0.000002 13.849602
							CHANNELS 3 Xrotation Yrotation Zrotation
							End Site
							{
								OFFSET 0.005871 0.773116 6.707275
							}
						}
					}
				}
			}
		}
	}
	JOINT LeftUpLeg
	{
		OFFSET 5.277740 0.811858 -0.967796
		CHANNELS 3 Xrotation Yrotation Zrotation
		JOINT LeftUpLegRoll
		{
			OFFSET 0.000000 -0.000003 16.021500
			CHANNELS 3 Xrotation Yrotation Zrotation
			JOINT LeftLeg
			{
				OFFSET 0.000000 -0.000003 19.840004
				CHANNELS 3 Xrotation Yrotation Zrotation
				JOINT LeftLegRoll
				{
					OFFSET 0.000000 -0.000003 20.089005
					CHANNELS 3 Xrotation Yrotation Zrotation
					JOINT LeftFoot
					{
						OFFSET 0.000000 -0.000003 16.383499
						CHANNELS 3 Xrotation Yrotation Zrotation
						JOINT LeftToeBase
						{
							OFFSET 0.000000 -0.000002 13.849594
							CHANNELS 3 Xrotation Yrotation Zrotation
							End Site
							{
								OFFSET -0.026310 0.773116 6.707275
							}
						}
					}
				}
			}
		}
	}
}
MOTION
Frames: 4
Frame Time: 0.041667
52.247200 -3.330312 74.386292 1.106540 3.100442 1.340304 1.809034 -0.666478 0.092902 7.622501 -1.328203 0.197649 9.267782 -1.325742 0.213549 -17.629456 0.235697 -6.313579 -11.151920 -7.692269 -6.510544 -12.987719 -60.216109 -15.353553 -35.752977 -128.794268 -53.907548 0.000003 -0.000004 -0.000003 -0.026482 3.639950 -1.991000 0.000001 -0.000010 -3.011601 -5.000154 -7.999919 -0.000002 -12.424129 45.565589 14.034457 -27.461155 141.003955 56.584784 0.000001 0.000006 -0.000001 -0.026743 -3.639170 1.990932 0.000002 -0.000002 3.011598 -5.000183 7.999929 0.000002 -28.414316 -187.949075 -0.807480 -179.999991 0.000005 -1.658993 120.874158 2.975531 -0.658830 0.000009 0.000002 2.446210 87.634544 6.463563 1.946783 34.568971 -7.264180 1.168705 -34.732810 -177.889941 3.629602 -0.000006 -0.000005 -1.561700 -63.408778 -4.710733 -0.644539 -0.000002 0.000001 -2.481770 82.724458 -6.245551 -3.297266 35.143444 6.973762 -2.877470 
52.298401 -3.399782 74.451302 0.968948 3.081520 1.386148 1.814388 -0.656155 0.091557 7.633151 -1.307643 0.194400 9.278427 -1.305223 0.210053 -17.752415 0.076874 -6.368209 -10.873561 -7.540559 -6.477865 -13.146403 -60.203275 -15.539908 -35.884813 -128.999734 -54.146693 0.000002 -0.000004 0.000000 -0.026482 3.639950 -1.990998 0.000001 -0.000009 -3.011600 -5.000153 -7.999920 -0.000001 -12.393842 45.339667 13.984029 -27.318865 141.229078 56.669403 0.000001 0.000007 0.000001 -0.026743 -3.639170 1.990934 0.000002 -0.000001 3.011599 -5.000183 7.999928 0.000002 -28.190868 -187.922137 -0.811528 -179.999991 0.000005 -1.660004 121.001651 2.981906 -0.661173 0.000009 0.000002 2.435161 87.437090 6.465972 1.946892 34.735723 -7.260571 1.191743 -34.501300 -177.912918 3.601078 -0.000004 -0.000004 -1.559950 -63.236371 -4.680335 -0.616323 -0.000000 0.000001 -2.459070 82.560854 -6.249652 -3.286195 35.274956 6.970885 -2.872017 
52.271599 -2.998545 74.451897 0.895947 3.080074 1.440435 1.800835 -0.650631 0.091523 7.606029 -1.296604 0.194115 9.251303 -1.294190 0.209636 -17.844412 -0.057179 -6.424176 -10.600279 -7.399421 -6.457521 -13.386425 -60.168919 -15.820743 -35.966799 -129.195064 -54.336006 0.000002 -0.000004 -0.000001 -0.026482 3.639950 -1.991000 0.000002 -0.000010 -3.011599 -5.000154 -7.999920 0.000000 -12.375369 45.143599 13.950486 -27.168642 141.436620 56.734092 0.000001 0.000006 -0.000002 -0.026742 -3.639171 1.990931 0.000002 -0.000001 3.011604 -5.000183 7.999928 -0.000002 -28.025345 -187.880978 -0.792421 -179.999991 0.000005 -1.658993 121.167324 2.955552 -0.680457 0.000008 0.000002 2.417960 87.212718 6.472136 1.930428 34.914421 -7.257016 1.213668 -34.316281 -177.959541 3.576827 -0.000005 -0.000004 -1.556840 -63.019983 -4.650370 -0.587866 0.000000 0.000001 -2.436109 82.410877 -6.255214 -3.271088 35.356655 6.968739 -2.870821 
52.320000 -3.120403 74.569603 0.876192 3.093848 1.506637 1.770192 -0.648286 0.092545 7.544750 -1.291891 0.196214 9.190019 -1.289449 0.211678 -17.899115 -0.201020 -6.489004 -10.330857 -7.239961 -6.442155 -13.711866 -60.134051 -16.201965 -36.028483 -129.376747 -54.494429 0.000002 -0.000004 -0.000001 -0.026482 3.639950 -1.990995 0.000002 -0.000010 -3.011602 -5.000154 -7.999920 -0.000002 -12.358290 44.951012 13.918967 -26.994753 141.641362 56.780544 0.000001 0.000006 0.000002 -0.026743 -3.639170 1.990934 0.000001 -0.000001 3.011600 -5.000183 7.999929 -0.000003 -27.901799 -187.820599 -0.751920 -179.999991 0.000005 -1.656999 121.372653 2.899088 -0.714317 0.000005 0.000002 2.394680 86.955733 6.482487 1.899345 35.116485 -7.253092 1.237218 -34.160699 -178.028635 3.555954 -0.000005 -0.000005 -1.552310 -62.753579 -4.619738 -0.559127 0.000000 0.000001 -2.411960 82.271712 -6.262742 -3.252134 35.397783 6.967143 -2.873254 
